HIERARCHY
ROOT SpineBase
{
  OFFSET 0.000000 0.000000 0.000000
  CHANNELS 6 Xposition Yposition Zposition Zrotation Xrotation Yrotation
  JOINT SpineMid
  {
    OFFSET -0.000000 35.418435 0.000000
    CHANNELS 3 Zrotation Xrotation Yrotation
    JOINT SpineShoulder
    {
      OFFSET -0.051331 26.075542 -0.820754
      CHANNELS 3 Zrotation Xrotation Yrotation
      JOINT Neck
      {
        OFFSET -0.038327 8.587214 -0.591134
        CHANNELS 3 Zrotation Xrotation Yrotation
        JOINT Head
        {
          OFFSET -1.117768 11.034038 1.172697
          CHANNELS 3 Zrotation Xrotation Yrotation
          End Site
          {
            OFFSET 0 0 0
          }
        }
      }
      JOINT ShoulderLeft
      {
        OFFSET -11.696047 -7.576390 -11.664955
        CHANNELS 3 Zrotation Xrotation Yrotation
        JOINT ElbowLeft
        {
          OFFSET -6.683594 -25.293625 1.722823
          CHANNELS 3 Zrotation Xrotation Yrotation
          JOINT WristLeft
          {
            OFFSET -0.451356 -19.219350 12.434909
            CHANNELS 3 Zrotation Xrotation Yrotation
            JOINT HandLeft
            {
              OFFSET 1.074982 -6.193996 -5.112837
              CHANNELS 3 Zrotation Xrotation Yrotation
              JOINT HandTipLeft
              {
                OFFSET -1.935568 -5.829607 1.874988
                CHANNELS 3 Zrotation Xrotation Yrotation
                End Site
                {
                  OFFSET 0 0 0
                }
              }
              JOINT ThumbLeft
              {
                OFFSET 1.230523 0.198485 -5.047243
                CHANNELS 3 Zrotation Xrotation Yrotation
                End Site
                {
                  OFFSET 0 0 0
                }
              }
            }
          }
        }
      }
      JOINT ShoulderRight
      {
        OFFSET 8.711384 -5.209384 -4.275891
        CHANNELS 3 Zrotation Xrotation Yrotation
        JOINT ElbowRight
        {
          OFFSET -16.396737 -16.664378 -10.187359
          CHANNELS 3 Zrotation Xrotation Yrotation
          JOINT WristRight
          {
            OFFSET -13.968251 -18.674756 3.326390
            CHANNELS 3 Zrotation Xrotation Yrotation
            JOINT HandRight
            {
              OFFSET 4.144956 -4.257058 5.469424
              CHANNELS 3 Zrotation Xrotation Yrotation
              JOINT HandTipRight
              {
                OFFSET 0.099919 -6.782437 2.723320
                CHANNELS 3 Zrotation Xrotation Yrotation
                End Site
                {
                  OFFSET 0 0 0
                }
              }
              JOINT ThumbRight
              {
                OFFSET -2.813215 1.407478 -0.300453
                CHANNELS 3 Zrotation Xrotation Yrotation
                End Site
                {
                  OFFSET 0 0 0
                }
              }
            }
          }
        }
      }
    }
  }
  JOINT HipLeft
  {
    OFFSET -7.404520 0.673036 -5.402156
    CHANNELS 3 Zrotation Xrotation Yrotation
    JOINT KneeLeft
    {
      OFFSET 2.350941 -31.027801 2.348972
      CHANNELS 3 Zrotation Xrotation Yrotation
      JOINT AnkleLeft
      {
        OFFSET 0.493027 -34.047932 -3.371854
        CHANNELS 3 Zrotation Xrotation Yrotation
        JOINT FootLeft
        {
          OFFSET 3.336792 -3.062246 -13.019658
          CHANNELS 3 Zrotation Xrotation Yrotation
          End Site
          {
            OFFSET 0 0 0
          }
        }
      }
    }
  }
  JOINT HipRight
  {
    OFFSET 6.037198 0.755093 -1.147455
    CHANNELS 3 Zrotation Xrotation Yrotation
    JOINT KneeRight
    {
      OFFSET 4.660351 -30.225081 3.595539
      CHANNELS 3 Zrotation Xrotation Yrotation
      JOINT AnkleRight
      {
        OFFSET 3.054723 -33.991512 -0.167038
        CHANNELS 3 Zrotation Xrotation Yrotation
        JOINT FootRight
        {
          OFFSET 2.680112 -2.048071 -9.766427
          CHANNELS 3 Zrotation Xrotation Yrotation
          End Site
          {
            OFFSET 0 0 0
          }
        }
      }
    }
  }
}
MOTION
Frames: 6
Frame Time: 0.033333
47.478590 77.309380 263.011942 0.000000 0.000000 -17.564120 -0.000000 0.000000 17.564120 -0.000000 0.000000 0.000000 -0.000000 0.000000 0.000000 0.000000 0.000000 0.000000 -0.000000 0.000000 0.000000 -0.000000 0.000000 0.000000 -0.000000 0.000000 0.000000 -0.000000 0.000000 0.000000 0.000000 0.000000 0.000000 0.000000 0.000000 0.000000 -0.000000 0.000000 0.000000 -0.000000 0.000000 0.000000 -0.000000 0.000000 0.000000 -0.000000 0.000000 0.000000 0.000000 0.000000 0.000000 0.000000 0.000000 0.000000 -0.000000 0.000000 17.564120 -0.000000 0.000000 0.000000 -0.000000 0.000000 0.000000 0.000000 0.000000 0.000000 -0.000000 0.000000 17.564120 -0.000000 0.000000 0.000000 -0.000000 0.000000 0.000000 0.000000 0.000000 0.000000
47.421686 77.198045 262.879377 0.009599 0.058653 -17.618222 0.008604 -0.058807 17.618221 -0.000000 0.000000 0.000000 -0.000000 0.000000 0.000000 0.000000 0.000000 0.000000 -0.000000 0.000000 0.000000 -0.000000 0.000000 0.000000 -4.194300 1.332225 3.730326 4.348801 1.568266 -4.673178 0.000000 0.000000 0.000000 0.000000 0.000000 0.000000 -1.398856 0.596319 0.271605 1.396091 -0.602765 -0.256981 -2.384163 2.764167 -0.331133 -1.548405 -2.563648 -1.320608 0.000000 0.000000 0.000000 0.000000 0.000000 0.000000 -0.893321 -0.138617 17.564642 0.883959 -0.196101 0.053538 -0.000000 0.000000 0.000000 0.000000 0.000000 0.000000 0.008604 -0.058807 17.618221 -0.000000 0.000000 0.000000 1.163843 8.661032 4.158001 0.000000 0.000000 0.000000
47.265833 77.101556 262.680313 0.070085 0.105623 -17.671124 -0.034716 -0.121914 17.671023 -0.000000 0.000000 0.000000 -0.847911 0.515299 0.146171 0.000000 0.000000 0.000000 -0.000000 0.000000 0.000000 1.149335 -0.562402 0.760247 -8.563152 2.940478 5.988819 8.067789 3.107903 -8.361584 0.000000 0.000000 0.000000 0.000000 0.000000 0.000000 -2.918250 1.205956 0.609278 2.905938 -1.235350 -0.547223 -4.598396 5.728917 -0.109553 -2.033327 -5.596949 -2.753589 0.000000 0.000000 0.000000 0.000000 0.000000 0.000000 -1.775193 -0.214106 17.571482 1.687105 -0.437568 0.100879 -0.000000 0.000000 0.000000 0.000000 0.000000 0.000000 -0.034716 -0.121914 17.671023 0.835971 -0.709348 -0.062642 0.666934 15.062717 7.126591 0.000000 0.000000 0.000000
47.011032 77.019913 262.414750 0.181336 0.141019 -17.722772 -0.129802 -0.189526 17.722334 -0.000000 0.000000 0.000000 -1.097193 0.744684 0.199238 0.000000 0.000000 0.000000 -0.000000 0.000000 0.000000 1.603146 -0.744655 1.061066 -11.315633 3.904954 7.885184 11.085187 4.576775 -11.110990 0.000000 0.000000 0.000000 0.000000 0.000000 0.000000 -4.531851 1.813218 1.010256 4.501629 -1.887127 -0.864324 -6.536310 8.754778 0.750354 -1.830728 -8.999870 -4.351877 0.000000 0.000000 0.000000 0.000000 0.000000 0.000000 -2.646039 -0.226947 17.585905 2.441811 -1.552356 0.128211 -0.029960 0.827874 0.015161 0.000000 0.000000 0.000000 -0.129802 -0.189526 17.722334 1.202107 -0.957626 -0.081848 0.246305 18.534431 9.140838 0.000000 0.000000 0.000000
46.657282 76.953118 262.082687 0.343361 0.164918 -17.773083 -0.276636 -0.261855 17.771957 -0.000000 0.000000 0.000000 -1.229241 0.955338 0.237724 0.000000 0.000000 0.000000 -0.000000 0.000000 0.000000 1.974799 -0.862468 1.307048 -13.111187 4.665412 9.062456 13.344342 5.880857 -12.969922 0.000000 0.000000 0.000000 0.000000 0.000000 0.000000 -6.207127 2.401636 1.467909 6.149673 -2.545609 -1.200906 -8.089317 11.676864 2.284163 -1.270034 -12.673243 -6.130118 0.000000 0.000000 0.000000 0.000000 0.000000 0.000000 -3.506482 -0.177574 17.608961 3.558766 -2.445002 0.124436 -0.502586 1.388780 0.075889 0.000000 0.000000 0.000000 -0.276636 -0.261855 17.771957 1.527236 -1.129451 -0.093847 -0.325724 19.819662 10.403106 0.000000 0.000000 0.000000
46.204584 76.901168 261.684125 0.556305 0.177366 -17.821954 -0.475333 -0.339109 17.819686 1.019549 0.145015 0.069547 -2.261894 1.005126 0.185639 0.000000 0.000000 0.000000 -0.291574 -0.550551 0.089410 1.533293 -0.515356 1.326666 -14.007060 5.279134 9.554007 14.787846 6.903798 -13.963676 0.000000 0.000000 0.000000 0.000000 0.000000 0.000000 -8.922516 2.823015 1.880653 7.144552 -2.281119 -2.373496 -8.612079 13.325733 5.125656 -0.599032 -16.533757 -8.045917 0.000000 0.000000 0.000000 0.000000 0.000000 0.000000 -4.357319 -0.066350 17.641495 4.825920 -3.526362 0.112779 -1.204872 2.092173 0.171342 0.000000 0.000000 0.000000 0.625962 -0.509287 17.869331 0.810618 -0.724579 -0.152258 -0.964415 18.990826 10.966364 0.000000 0.000000 0.000000
